# xmcd
#
# Track frame offsets:
# 150
# 14824
# 28160
# 43481
# 67227
# 80870
# 92075
# 106778
# 120079
# 132591
# 145910
# 158094
# 172585
# 192758
# 206950
# 222712
# 236380
# 251166
# 271943
# 292812
# 308330
# 327950
#
# Disc length: 4538 seconds
#
# Revision: 0
# Processed by: cddbd v1.5.2PL0 Copyright (c) Steve Scherf et al.
# Submitted via: Audion 3.0.2 (http://www.panic.com/audion/)
#
DISCID=4711b816
DTITLE=Frank Sinatra - Nothing But the Best (Deluxe Edition) [Remastered]
DYEAR=1900
DGENRE=
TTITLE0=Come Fly With Me
TTITLE1=The Best Is Yet to Come
TTITLE2=The Way You Look Tonight
TTITLE3=Luck Be a Lady
TTITLE4=Bewitched
TTITLE5=The Good Life
TTITLE6=The Girl from Ipanema
TTITLE7=Summer Wind
TTITLE8=Strangers In the Night
TTITLE9=Call Me Irresponsible
TTITLE10=Somethin' Stupid
TTITLE11=My Kind of Town
TTITLE12=It Was a Very Good Year
TTITLE13=That's Life
TTITLE14=Moonlight Serenade
TTITLE15=Nothing But the Best
TTITLE16=Drinking Again
TTITLE17=All My Tomorrows
TTITLE18=My Way
TTITLE19=Theme from New York, New York
TTITLE20=Body and Soul (1984 Recording)
TTITLE21=Ring-a-Ding Ding (1961 Version)
EXTD=
EXTT0=
EXTT1=
EXTT2=
EXTT3=
EXTT4=
EXTT5=
EXTT6=
EXTT7=
EXTT8=
EXTT9=
EXTT10=
EXTT11=
EXTT12=
EXTT13=
EXTT14=
EXTT15=
EXTT16=
EXTT17=
EXTT18=
EXTT19=
EXTT20=
EXTT21=
PLAYORDER=
